<svg width="141" height="32" viewBox="0 0 141 32" fill="none" xmlns="http://www.w3.org/2000/svg">
<path d="M39.736 5.312C38.392 5.312 37.312 5.756 36.496 6.644C35.68 7.532 35.272 8.708 35.272 10.172V11.144H38.944C39.448 11.144 39.856 11.288 40.168 11.576C40.48 11.864 40.636 12.248 40.636 12.728C40.636 13.16 40.48 13.52 40.168 13.808C39.856 14.096 39.448 14.24 38.944 14.24H35.272V28.28C35.272 28.832 35.104 29.276 34.768 29.612C34.432 29.948 33.964 30.116 33.364 30.116C32.884 30.116 32.464 29.948 32.104 29.612C31.768 29.276 31.6 28.832 31.6 28.28V14.24H30.052C29.548 14.24 29.14 14.096 28.828 13.808C28.516 13.52 28.36 13.16 28.36 12.728C28.36 12.248 28.516 11.864 28.828 11.576C29.14 11.288 29.548 11.144 30.052 11.144H31.6V10.532C31.6 8.828 31.936 7.34 32.608 6.068C33.304 4.772 34.264 3.776 35.488 3.08C36.736 2.36 38.152 2 39.736 2C40.264 2 40.696 2.156 41.032 2.468C41.392 2.78 41.572 3.176 41.572 3.656C41.572 4.136 41.392 4.532 41.032 4.844C40.696 5.156 40.264 5.312 39.736 5.312Z" fill="#F7FAFF"/>
<path d="M54.1067 10.208C55.3787 10.208 56.3747 10.4 57.0947 10.784C57.8147 11.168 58.1747 11.648 58.1747 12.224C58.1747 12.392 58.1627 12.512 58.1387 12.584C57.9227 13.352 57.4427 13.736 56.6987 13.736C56.5787 13.736 56.3987 13.712 56.1587 13.664C55.1987 13.496 54.4187 13.412 53.8187 13.412C52.0907 13.412 50.6987 13.808 49.6427 14.6C48.5867 15.392 48.0587 16.46 48.0587 17.804V28.316C48.0587 28.892 47.9027 29.336 47.5907 29.648C47.3027 29.96 46.8587 30.116 46.2587 30.116C45.6827 30.116 45.2387 29.972 44.9267 29.684C44.6147 29.372 44.4587 28.916 44.4587 28.316V12.224C44.4587 11.648 44.6147 11.204 44.9267 10.892C45.2387 10.58 45.6827 10.424 46.2587 10.424C47.4587 10.424 48.0587 11.024 48.0587 12.224V12.908C48.7787 12.068 49.6667 11.408 50.7227 10.928C51.7787 10.448 52.9067 10.208 54.1067 10.208Z" fill="#F7FAFF"/>
<path d="M78.2011 19.964C78.2011 20.42 78.0451 20.804 77.7331 21.116C77.4211 21.404 77.0251 21.548 76.5451 21.548H62.8651C63.1291 23.228 63.8851 24.584 65.1331 25.616C66.4051 26.648 67.9531 27.164 69.7771 27.164C70.4971 27.164 71.2411 27.032 72.0091 26.768C72.8011 26.504 73.4491 26.18 73.9531 25.796C74.2891 25.532 74.6851 25.4 75.1411 25.4C75.5971 25.4 75.9571 25.52 76.2211 25.76C76.6531 26.12 76.8691 26.528 76.8691 26.984C76.8691 27.416 76.6771 27.776 76.2931 28.064C75.4771 28.712 74.4571 29.24 73.2331 29.648C72.0331 30.056 70.8811 30.26 69.7771 30.26C67.8091 30.26 66.0451 29.84 64.4851 29C62.9251 28.136 61.7011 26.948 60.8131 25.436C59.9491 23.924 59.5171 22.208 59.5171 20.288C59.5171 18.368 59.9251 16.652 60.7411 15.14C61.5811 13.604 62.7331 12.416 64.1971 11.576C65.6851 10.712 67.3651 10.28 69.2371 10.28C71.0851 10.28 72.6811 10.688 74.0251 11.504C75.3691 12.32 76.4011 13.46 77.1211 14.924C77.8411 16.388 78.2011 18.068 78.2011 19.964ZM69.2371 13.376C67.4851 13.376 66.0571 13.856 64.9531 14.816C63.8731 15.776 63.1891 17.06 62.9011 18.668H74.8891C74.6731 17.06 74.0731 15.776 73.0891 14.816C72.1051 13.856 70.8211 13.376 69.2371 13.376Z" fill="#F7FAFF"/>
<path d="M89.7965 10.28C91.3565 10.28 92.7485 10.532 93.9725 11.036C95.2205 11.54 96.2045 12.236 96.9245 13.124C97.2365 13.508 97.3925 13.892 97.3925 14.276C97.3925 14.684 97.1885 15.056 96.7805 15.392C96.5165 15.584 96.1805 15.68 95.7725 15.68C95.1485 15.68 94.5845 15.452 94.0805 14.996C93.4805 14.444 92.8445 14.06 92.1725 13.844C91.5005 13.604 90.6845 13.484 89.7245 13.484C88.6205 13.484 87.7085 13.676 86.9885 14.06C86.2925 14.42 85.9445 14.936 85.9445 15.608C85.9445 16.088 86.0645 16.496 86.3045 16.832C86.5445 17.144 87.0005 17.444 87.6725 17.732C88.3445 17.996 89.3165 18.26 90.5885 18.524C93.2045 19.052 95.0525 19.784 96.1325 20.72C97.2365 21.656 97.7885 22.868 97.7885 24.356C97.7885 25.46 97.4885 26.468 96.8885 27.38C96.2885 28.268 95.4005 28.976 94.2245 29.504C93.0725 30.008 91.6805 30.26 90.0485 30.26C88.4165 30.26 86.8805 30.008 85.4405 29.504C84.0005 29 82.8725 28.34 82.0565 27.524C81.7445 27.212 81.5885 26.84 81.5885 26.408C81.5885 25.832 81.8285 25.364 82.3085 25.004C82.7645 24.668 83.1845 24.5 83.5685 24.5C84.0485 24.5 84.5045 24.716 84.9365 25.148C85.3925 25.652 86.0765 26.096 86.9885 26.48C87.9005 26.84 88.8725 27.02 89.9045 27.02C91.2725 27.02 92.3285 26.792 93.0725 26.336C93.8405 25.88 94.2245 25.268 94.2245 24.5C94.2245 23.756 93.8525 23.144 93.1085 22.664C92.3645 22.16 91.1045 21.74 89.3285 21.404C84.7205 20.516 82.4165 18.62 82.4165 15.716C82.4165 14.54 82.7645 13.544 83.4605 12.728C84.1565 11.912 85.0685 11.3 86.1965 10.892C87.3245 10.484 88.5245 10.28 89.7965 10.28Z" fill="#F7FAFF"/>
<path d="M112.223 10.244C113.879 10.244 115.367 10.604 116.687 11.324C118.007 12.044 119.039 13.1 119.783 14.492C120.527 15.86 120.899 17.516 120.899 19.46V28.316C120.899 28.844 120.719 29.288 120.359 29.648C120.023 29.984 119.591 30.152 119.063 30.152C118.535 30.152 118.091 29.984 117.731 29.648C117.395 29.288 117.227 28.844 117.227 28.316V19.46C117.227 17.516 116.699 16.052 115.643 15.068C114.611 14.06 113.231 13.556 111.503 13.556C110.495 13.556 109.571 13.76 108.731 14.168C107.915 14.576 107.267 15.128 106.787 15.824C106.331 16.52 106.103 17.3 106.103 18.164V28.316C106.103 28.844 105.935 29.288 105.599 29.648C105.263 29.984 104.819 30.152 104.267 30.152C103.739 30.152 103.295 29.984 102.935 29.648C102.599 29.288 102.431 28.844 102.431 28.316V3.836C102.431 3.284 102.599 2.84 102.935 2.504C103.295 2.168 103.739 2 104.267 2C104.819 2 105.263 2.168 105.599 2.504C105.935 2.84 106.103 3.284 106.103 3.836V12.656C106.871 11.888 107.783 11.3 108.839 10.892C109.895 10.46 111.023 10.244 112.223 10.244Z" fill="#F7FAFF"/>
<path d="M136.654 10.208C137.926 10.208 138.922 10.4 139.642 10.784C140.362 11.168 140.722 11.648 140.722 12.224C140.722 12.392 140.71 12.512 140.686 12.584C140.47 13.352 139.99 13.736 139.246 13.736C139.126 13.736 138.946 13.712 138.706 13.664C137.746 13.496 136.966 13.412 136.366 13.412C134.638 13.412 133.246 13.808 132.19 14.6C131.134 15.392 130.606 16.46 130.606 17.804V28.316C130.606 28.892 130.45 29.336 130.138 29.648C129.85 29.96 129.406 30.116 128.806 30.116C128.23 30.116 127.786 29.972 127.474 29.684C127.162 29.372 127.006 28.916 127.006 28.316V12.224C127.006 11.648 127.162 11.204 127.474 10.892C127.786 10.58 128.23 10.424 128.806 10.424C130.006 10.424 130.606 11.024 130.606 12.224V12.908C131.326 12.068 132.214 11.408 133.27 10.928C134.326 10.448 135.454 10.208 136.654 10.208Z" fill="#F7FAFF"/>
<path d="M15 22.6582C15 23.4153 14.9724 24.1724 14.9171 24.9294C14.9033 25.1863 14.8757 25.4567 14.8481 25.7136C14.3508 29.2691 11.2293 32 7.45856 32C3.34254 32 0 28.7283 0 24.6996C0 23.0908 0.538674 21.5902 1.43646 20.387C1.69889 20.1031 1.96133 19.8192 2.19613 19.5218C4.98619 16.169 6.64365 11.8969 6.64365 7.2463C6.64365 4.67765 6.1326 2.23067 5.22099 0C11.2569 5.74567 15 13.7761 15 22.6582Z" fill="#F7FAFF"/>
</svg>
