<svg width="21" height="19" viewBox="0 0 21 19" fill="none" xmlns="http://www.w3.org/2000/svg">
<path d="M18.8413 5.22272C18.8547 5.40926 18.8547 5.59584 18.8547 5.78238C18.8547 11.4721 14.5241 18.0279 6.60913 18.0279C4.17067 18.0279 1.90546 17.3217 0 16.0958C0.346459 16.1358 0.679547 16.1491 1.03934 16.1491C3.05136 16.1491 4.90354 15.4696 6.38261 14.3103C4.49047 14.2703 2.90481 13.0311 2.35848 11.3255C2.625 11.3655 2.89148 11.3921 3.17133 11.3921C3.55774 11.3921 3.94419 11.3388 4.30393 11.2456C2.33186 10.8458 0.852756 9.11359 0.852756 7.02158V6.9683C1.4257 7.2881 2.092 7.48797 2.79817 7.51459C1.6389 6.74173 0.879416 5.42259 0.879416 3.9302C0.879416 3.13072 1.09257 2.39785 1.46569 1.75825C3.58436 4.36992 6.76901 6.07548 10.34 6.26206C10.2734 5.94226 10.2334 5.60917 10.2334 5.27604C10.2334 2.90419 12.1522 0.972107 14.5374 0.972107C15.7766 0.972107 16.8959 1.49178 17.682 2.33124C18.6547 2.1447 19.5875 1.78491 20.4136 1.29191C20.0938 2.29129 19.4143 3.13076 18.5215 3.66372C19.3876 3.57049 20.2271 3.33059 20.9999 2.9975C20.4137 3.85026 19.6808 4.60974 18.8413 5.22272Z" fill="#1DA1F2"/>
</svg>
